<?xml version="1.0" encoding="UTF-8"?>
<svg xmlns="http://www.w3.org/2000/svg" version="1.1" viewBox="0 0 841.9 595.3">
  <defs>
    <style>
      .cls-1 {
        fill: #e1261d;
      }

      .cls-2 {
        stroke: #fff;
        stroke-width: .7px;
      }

      .cls-2, .cls-3 {
        fill: #fff;
      }

      .cls-2, .cls-4 {
        stroke-linecap: round;
        stroke-linejoin: round;
      }

      .cls-5 {
        fill: #84754e;
      }

      .cls-6, .cls-4 {
        fill: #1d1d1b;
      }

      .cls-4 {
        stroke: #1d1d1b;
        stroke-width: 6.9px;
      }
    </style>
  </defs>
  <!-- Generator: Adobe Illustrator 28.7.1, SVG Export Plug-In . SVG Version: 1.2.0 Build 142)  -->
  <g>
    <g id="Capa_1">
      <rect class="cls-1" x="137.5" y="151.9" width="566.9" height="212.6"/>
      <g>
        <path class="cls-3" d="M338.2,294.9h-5.4l-1.5,3.5h5.4l-1.3,3.2h-5.4l-1.6,3.8h6.1l-1.3,3.2h-10.2l6.9-16.8h9.9l-1.7,3.2Z"/>
        <path class="cls-3" d="M355.1,308.5h-3.5l-3.8-8.8c-.4-.9-.6-1.5-.9-2.1h0c-.2.5-.4,1.1-.7,1.8l-3.7,9.1h-4.1l6.9-16.8h3.8l3.4,8.2c.5,1.2.7,1.8,1,2.5h0c.2-.6.6-1.5.8-2l3.6-8.7h4.1l-6.9,16.8Z"/>
        <path class="cls-3" d="M375.7,294.9h-5.4l-1.4,3.5h5.4l-1.3,3.2h-5.4l-1.6,3.8h6.1l-1.3,3.2h-10.2l6.9-16.8h9.9l-1.7,3.2Z"/>
        <path class="cls-3" d="M388.4,296.8c-.3,1.5-2.2,2.7-3.8,2.7h-1.1l1.9-4.5h1c1.7,0,2.2.8,2,1.9ZM392.8,296.1c.4-2.3-.8-4.3-5.2-4.3h-4.9l-6.9,16.8h4.1l2.6-6.3h1.2c.1.5.3,1.1.5,1.9l1,4.4h4.2c-.7-2.9-1.5-5.6-1.9-7.2,2-.5,4.8-2.3,5.4-5.3Z"/>
        <path class="cls-3" d="M411.9,295.9c-1.4-.9-3.2-1.2-4.7-1.2-4.9,0-7.5,3.6-8,6.2-.6,3.2.9,4.6,3.9,4.6s1.3,0,2-.2l2.4-5.5h4l-3.1,7.5c-2.4,1-4.5,1.5-6.8,1.5-5.6,0-7.6-3.2-6.8-7.4.9-4.8,5.7-9.8,12.8-9.8s4.1.3,5.7,1.1l-1.3,3.2Z"/>
        <path class="cls-3" d="M417.1,308.5h-4.1l6.9-16.8h4.1l-6.9,16.8Z"/>
        <path class="cls-3" d="M433.5,301.4h-2.9l2.3-3.2c.2-.4.6-.9.9-1.4h0c0,.5,0,1-.1,1.4v3.2ZM437.8,308.5l-.4-16.8h-3.5l-13.1,16.8h4.4l3-4h5.2v4s4.4,0,4.4,0Z"/>
        <path class="cls-3" d="M465.2,295.7c-1.1-.7-2.3-1.1-3.6-1.1s-2.5.6-2.7,1.7c-.5,2.5,5.4,2.2,4.5,6.9-.7,3.6-4.5,5.6-8.4,5.6s-3.6-.5-4.9-1.2l2.2-2.9c1,.7,1.9,1.1,3.4,1.1s3-.4,3.2-1.8c.5-2.6-5.3-2.3-4.4-6.9.6-3.5,4-5.5,7.5-5.5s3.5.4,4.4,1l-1.3,3.2Z"/>
        <path class="cls-3" d="M469.6,308.5h-4.1l6.9-16.8h4.1l-6.9,16.8Z"/>
        <path class="cls-3" d="M491.9,308.5h-3.5l-3.7-8.8c-.4-.9-.6-1.5-.9-2.1h0c-.2.5-.4,1.1-.7,1.8l-3.8,9.1h-4.1l6.9-16.8h3.8l3.4,8.2c.5,1.2.7,1.8,1,2.5h0c.2-.6.6-1.5.8-2l3.6-8.7h4.1l-6.9,16.8Z"/>
        <path class="cls-3" d="M516.4,308.5h-9.9l6.9-16.8h4.1l-5.6,13.6h5.9l-1.3,3.2Z"/>
        <path class="cls-3" d="M524,308.5h-4.1l6.9-16.8h4.1l-6.9,16.8Z"/>
        <path class="cls-3" d="M547.7,308.5h-4.1l3.3-8c.5-1.1.8-1.9,1-2.4h0c-.5.5-1.2,1.3-1.9,1.9l-4.7,4.6h-1.8l-1.2-4.7c-.1-.5-.3-1.1-.4-1.8h-.1c-.2.9-1.1,2.9-1.5,4l-2.6,6.4h-4.1l6.9-16.8h3.7l1.4,5.6c.3,1.2.5,2.1.6,2.7h0c.6-.7,1.3-1.5,2.3-2.4l5.9-5.9h4.2l-6.9,16.8Z"/>
        <path class="cls-3" d="M557.2,308.5h-4.1l6.9-16.8h4.1l-6.9,16.8Z"/>
        <path class="cls-3" d="M579.8,294.9h-4.6l-5.6,13.6h-4.1l5.6-13.6h-5.1l1.3-3.2h14.3l-1.8,3.2Z"/>
        <path class="cls-3" d="M593.4,294.9h-5.4l-1.4,3.5h5.4l-1.3,3.2h-5.4l-1.6,3.8h6.1l-1.3,3.2h-10.2l6.9-16.8h9.9l-1.7,3.2Z"/>
        <path class="cls-3" d="M607.9,295.7c-1.1-.7-2.3-1.1-3.6-1.1s-2.5.6-2.7,1.7c-.5,2.5,5.4,2.2,4.5,6.9-.7,3.6-4.5,5.6-8.4,5.6s-3.6-.5-4.9-1.2l2.2-2.9c1,.7,1.9,1.1,3.4,1.1s3-.4,3.2-1.8c.5-2.6-5.3-2.3-4.4-6.9.6-3.5,4-5.5,7.5-5.5s3.5.4,4.4,1l-1.3,3.2Z"/>
      </g>
      <g>
        <path class="cls-4" d="M395.2,218.9h43.3c5.5,0,10.3,1.4,14.6,4.1,5.4,3.4,7.9,8.4,7.3,14.8-.5,6.5-4.2,11.6-11.1,15.4-2.3,1.2-5.6,2.4-10.1,3.7l10.5,19.1h-24.1l-3.9-15.2c-.4-1.4-.7-2.2-.9-2.4-.2-.2-.4-.3-.4-.3l-5.5,17.8h-23l14.7-45.4-11.4-11.7ZM429.4,230.2l-5.4,17.7h1c3.4,0,6.2-.7,8.2-2,2-1.4,3.5-3.3,4.3-5.7.3-1.1.5-2,.6-2.8.2-2.8-.8-4.8-3.1-6-.7-.4-1.9-.7-3.4-.9l-2.1-.2Z"/>
        <path class="cls-4" d="M462.7,218.9h43.2c3.4,0,6.7.8,9.9,2.5,4.7,2.5,6.9,6.2,6.5,11.1-.4,4.8-2.4,8.6-6.1,11.1-1.2.8-2.9,1.6-5.2,2.3,1.9,1.1,3.3,2,4.1,2.8,2.6,2.7,3.7,6.5,3.3,11.5-.4,4.6-2.2,8.4-5.7,11.3-3.4,2.9-7.9,4.4-13.6,4.4h-39.3l15.3-45.5-12.5-11.6ZM498,230.5l-5,13h5.5c1.8-.5,3.2-1.4,4.4-2.8,1.2-1.4,1.8-2.9,1.9-4.6.2-2,0-3.5-.7-4.3-.6-.9-1.6-1.3-2.8-1.3h-3.3ZM492.3,265.1c1.7,0,3-.5,4-1.6,1-1.1,1.8-2.6,2.4-4.6.2-.7.3-1.3.4-1.8.1-1.6-.2-3.1-1.1-4.4-.9-1.3-2.1-1.9-3.6-1.9h-4l-4.6,14.3h6.6Z"/>
        <polygon class="cls-4" points="211.5 230.4 197.1 276 242.4 276 247 262.2 224 262.2 227.3 253.4 243.1 253.4 247.6 239.5 232 239.5 235 230.3 252 230.3 255.7 218.9 200 218.9 211.5 230.4"/>
        <polygon class="cls-4" points="347.3 230.4 333 276 378.3 276 382.8 262.2 359.8 262.2 363.1 253.4 378.9 253.4 383.5 239.5 367.8 239.5 370.9 230.3 387.8 230.3 391.5 218.9 335.8 218.9 347.3 230.4"/>
        <path class="cls-4" d="M548.2,229.9l-30.5,46.1h25.1c.9-1.8,1.6-3.1,2-4.1,1.4-2.9,2.3-4.5,2.5-4.8h14.3l-.7,8.8h21.2l-.7-57.1h-45.7l12.6,11ZM552.4,255.4l12.1-25.3-2,25.3h-10.1Z"/>
        <polygon class="cls-4" points="590.2 218.9 641.6 218.9 637.8 230.1 625.1 230.1 610.2 276 587.1 276 602 230.3 590.2 218.9"/>
        <polygon class="cls-4" points="269.9 230.7 255.4 276 278.5 276 285.4 253.9 293.3 276 313.9 276 332.5 218.9 310 218.9 303.3 239.1 294.8 218.9 258.5 218.9 269.9 230.7"/>
      </g>
      <g>
        <path class="cls-2" d="M394.3,217.6h43.3c5.5,0,10.3,1.4,14.6,4.1,5.4,3.4,7.9,8.4,7.3,14.8-.5,6.5-4.2,11.6-11.1,15.4-2.3,1.2-5.6,2.4-10.1,3.7l10.5,19.1h-24.1l-3.9-15.2c-.4-1.4-.7-2.2-.9-2.4-.2-.2-.4-.3-.4-.3l-5.5,17.8h-23l14.7-45.4-11.4-11.7ZM428.5,228.9l-5.4,17.7h1c3.4,0,6.2-.7,8.2-2,2-1.4,3.5-3.3,4.3-5.7.3-1.1.5-2,.6-2.8.2-2.8-.8-4.8-3.1-6-.7-.4-1.9-.7-3.4-.9l-2.1-.2Z"/>
        <path class="cls-2" d="M461.8,217.6h43.2c3.4,0,6.7.8,9.9,2.5,4.7,2.5,6.9,6.2,6.5,11.1-.4,4.8-2.4,8.6-6.1,11.1-1.2.8-2.9,1.6-5.2,2.3,1.9,1.1,3.3,2,4.1,2.8,2.6,2.7,3.7,6.5,3.3,11.5-.4,4.6-2.2,8.4-5.7,11.3-3.4,2.9-7.9,4.4-13.6,4.4h-39.3l15.3-45.5-12.5-11.6ZM497.1,229.1l-5,13h5.5c1.8-.5,3.2-1.4,4.4-2.8,1.2-1.4,1.8-2.9,1.9-4.6.2-2,0-3.5-.7-4.3-.6-.9-1.6-1.3-2.8-1.3h-3.3ZM491.5,263.8c1.7,0,3-.5,4-1.6,1-1.1,1.8-2.6,2.4-4.6.2-.7.3-1.3.4-1.8.1-1.6-.2-3.1-1.1-4.4-.9-1.3-2.1-1.9-3.6-1.9h-4l-4.6,14.3h6.6Z"/>
        <polygon class="cls-2" points="210.7 229 196.3 274.6 241.6 274.6 246.2 260.8 223.1 260.8 226.4 252 242.3 252 246.8 238.2 231.1 238.2 234.2 228.9 251.1 228.9 254.8 217.6 199.1 217.6 210.7 229"/>
        <polygon class="cls-2" points="346.5 229 332.1 274.6 377.4 274.6 382 260.8 359 260.8 362.3 252 378.1 252 382.6 238.2 366.9 238.2 370 228.9 386.9 228.9 390.7 217.6 335 217.6 346.5 229"/>
        <path class="cls-2" d="M547.3,228.6l-30.5,46.1h25.1c.9-1.8,1.6-3.1,2-4.1,1.4-2.9,2.3-4.5,2.5-4.8h14.3l-.7,8.8h21.2l-.7-57.1h-45.7l12.6,11ZM551.6,254l12.1-25.3-2,25.3h-10.1Z"/>
        <polygon class="cls-2" points="589.3 217.6 640.8 217.6 636.9 228.7 624.2 228.7 609.4 274.6 586.3 274.6 601.1 229 589.3 217.6"/>
        <polygon class="cls-2" points="269 229.3 254.6 274.6 277.6 274.6 284.5 252.6 292.4 274.6 313 274.6 331.7 217.6 309.2 217.6 302.4 237.7 293.9 217.6 257.6 217.6 269 229.3"/>
      </g>
      <g>
        <path class="cls-5" d="M399.8,219.9c3.4,3.5,8.5,8.7,8.5,8.7,0,0-12.4,38.3-14.1,43.7h18c.8-2.7,5.7-18.6,5.7-18.6l1.5.8,1.9.8c.7.6,1.1,1.4,1.7,3.5,0,0,2.5,9.5,3.5,13.5h18.3c-2.5-4.6-10-18.2-10-18.2l2.8-.8c4.3-1.2,7.6-2.4,9.7-3.5,6.1-3.4,9.4-7.8,9.8-13.5,0-.5,0-1,0-1.5,0-4.9-2.1-8.5-6.3-11.2-3.9-2.5-8.4-3.7-13.3-3.7h-37.8ZM420.9,245.9l5.9-19.5,4.1.3h0c1.9.3,3.2.7,4.1,1.1,3.1,1.6,4.7,4.5,4.4,8.3,0,0-.6,3.3-.6,3.3-1,3-2.7,5.4-5.2,7-2.4,1.6-5.6,2.4-9.5,2.4h-4.2l.9-3Z"/>
        <path class="cls-5" d="M467.8,219.9c3.7,3.4,9.2,8.5,9.2,8.5,0,0-13,38.5-14.8,43.9h36c5.1,0,9.1-1.3,12.1-3.8,2.9-2.5,4.5-5.7,4.8-9.7,0-.6,0-1.2,0-1.7,0-3.4-.9-6.1-2.8-8-.4-.4-1.4-1.2-3.6-2.4l-4.8-2.7,5.3-1.6c2-.6,3.6-1.3,4.6-2,3.1-2.2,4.8-5.3,5.1-9.4,0-.3,0-.6,0-.9,0-3.5-1.7-6.1-5.3-7.9-2.9-1.5-5.8-2.2-8.8-2.2h-37.2ZM489.9,241.3l5.6-14.5h4.9c2-.1,3.6.7,4.7,2.2,1,1.4,1.4,3.3,1.1,5.9-.2,2.1-1,4.1-2.5,5.9-1.5,1.8-3.4,3-5.6,3.6h-.3c0,0-9.2,0-9.2,0l1.2-3.2ZM482.7,263l5.1-15.9h5.7c2.3,0,4.3,1.1,5.6,3,1.2,1.7,1.7,3.7,1.5,5.9,0,0-.5,2.3-.5,2.3-.8,2.4-1.8,4.2-2.9,5.5-.9,1.1-2.7,2.4-5.7,2.4h-9.8l1-3.1Z"/>
        <path class="cls-5" d="M204.8,219.9c3.4,3.4,8.5,8.5,8.5,8.5,0,0-12.2,38.6-13.9,43.9h40.4c.6-1.9,2-6,3-9.2h-23.2l5-13.5h15.8c.6-1.9,2-6,3-9.1h-15.7l4.6-13.9h16.9c.5-1.6,1.3-4,2.2-6.6h-46.8Z"/>
        <path class="cls-5" d="M340.6,219.9c3.4,3.4,8.5,8.5,8.5,8.5,0,0-12.2,38.6-13.9,43.9h40.4c.6-1.9,2-6,3-9.2h-23.2l5-13.5h15.8c.6-1.9,2-6,3-9.1h-15.7l4.6-13.9h16.9c.5-1.6,1.3-4,2.2-6.6h-46.8Z"/>
        <path class="cls-5" d="M541,219.9c3.7,3.2,9.4,8.2,9.4,8.2,0,0-25.2,38-29.3,44.1h19.3c.6-1.2,1.3-2.7,1.3-2.7,2.3-4.7,2.6-5.1,3-5.5l.7-.6h17.8s-.5,6.2-.7,8.8h16.3c0-4.2-.6-48.3-.7-52.4h-37.2ZM549.5,253l11.4-24.1h5.2s-2.2,27.4-2.2,27.4h-15.9l1.6-3.3Z"/>
        <path class="cls-5" d="M595.1,219.9c3.5,3.4,8.7,8.4,8.7,8.4,0,0-12.6,38.7-14.3,44h18.2c1-3,14.8-45.9,14.8-45.9h12.7c.5-1.6,1.3-3.9,2.2-6.5h-42.4Z"/>
        <path class="cls-5" d="M310.8,219.9c-.9,2.7-8.2,24.4-8.2,24.4,0,0-9.2-21.9-10.3-24.4h-29.2c3.4,3.5,8.5,8.8,8.5,8.8,0,0-12.2,38.3-13.9,43.6h18.2c.9-2.8,8.5-27.1,8.5-27.1,0,0,8.7,24.4,9.7,27.1h17.3c.9-2.9,15.4-47.1,17.1-52.4h-17.6Z"/>
      </g>
      <g>
        <path d="M417,252.4s-4.9,15.9-5.7,18.6h-16.7c-.2.5-.3,1-.4,1.3h18c.8-2.7,5.7-18.6,5.7-18.6"/>
        <path d="M456.3,233.5c0,.5,0,1,0,1.4-.5,5.7-3.7,10.1-9.8,13.5-2.1,1.1-5.4,2.3-9.7,3.5l-2.8.8s7.4,13.5,10,18.2h-17.7c.1.5.2.9.3,1.3h18.3c-2.5-4.6-10-18.2-10-18.2l2.8-.8c4.3-1.2,7.6-2.4,9.7-3.5,6.1-3.4,9.4-7.8,9.8-13.5,0-.5,0-1,0-1.5,0-3.2-.9-5.9-2.8-8.1,1.2,2,1.8,4.2,1.8,6.8Z"/>
        <path d="M518.2,228.8c0,.3,0,.6,0,.9-.3,4.1-2,7.2-5.1,9.4-1,.7-2.6,1.4-4.6,2l-5.3,1.6,1.9,1,4.3-1.3c2-.6,3.6-1.3,4.6-2,3.1-2.2,4.8-5.3,5.1-9.4,0-.3,0-.6,0-.9,0-2.2-.7-4-2-5.5.7,1.2,1.1,2.6,1.1,4.2Z"/>
        <path d="M514.3,257.4c-.3,4-1.9,7.2-4.8,9.7-3,2.5-7,3.8-12.1,3.8h-34.7c-.2.5-.3,1-.4,1.3h36c5.1,0,9.1-1.3,12.1-3.8,2.9-2.5,4.5-5.7,4.8-9.7,0-.6,0-1.2,0-1.7,0-3.2-.8-5.7-2.4-7.5,1,1.7,1.5,3.7,1.5,6.2s0,1.1,0,1.7Z"/>
        <path class="cls-6" d="M232.5,226.6h16.9c.5-1.6,1.3-4,2.2-6.6h-1.4c-.7,2.1-1.3,4-1.8,5.3h-16.9"/>
        <path d="M224.8,249.7h15.8c.6-1.9,2-6,3-9.1h-1.4c-1,2.9-2,6.2-2.6,7.8h-15.8"/>
        <path d="M199.9,271c-.2.5-.3,1-.4,1.3h40.4c.6-1.9,2-6,3-9.2h-1.4c-1,2.9-2.1,6.2-2.6,7.9h-39.1Z"/>
        <path d="M360.6,249.7h15.8c.6-1.9,2-6,3-9.1h-1.4c-1,2.9-2,6.2-2.6,7.8h-15.8"/>
        <path d="M368.3,226.6h16.9c.5-1.6,1.3-4,2.2-6.6h-1.4c-.7,2.1-1.3,4-1.8,5.3h-16.9"/>
        <path d="M335.7,271c-.2.5-.3,1-.4,1.3h40.4c.6-1.9,2-6,3-9.2h-1.4c-1,2.9-2.1,6.2-2.6,7.9h-39.1Z"/>
        <path d="M577.3,219.9c.1,8.4.6,47.2.6,51.1h-15.2c0,.5,0,.9-.1,1.3h16.3c0-4.2-.6-48.3-.7-52.4h-.9Z"/>
        <path d="M544.5,262.2l-.7.6c-.4.4-.8.8-3,5.5,0,0-.8,1.5-1.3,2.7h-17.5c-.3.5-.6,1-.9,1.3h19.3c.6-1.2,1.3-2.7,1.3-2.7,2.3-4.7,2.6-5.1,3-5.5"/>
        <path d="M636.1,219.9c-.7,2.1-1.3,3.9-1.8,5.2h-12.7s-13.9,42.9-14.8,45.9h-16.8c-.2.5-.3,1-.4,1.3h18.2c1-3,14.8-45.9,14.8-45.9h12.7c.5-1.6,1.3-3.9,2.2-6.5h-1.4Z"/>
        <path d="M275,271h-16.8c-.2.5-.3,1-.4,1.3h18.2c.8-2.5,7-22.4,8.3-26.4-.4-1.2-.7-2-.7-2,0,0-7.6,24.3-8.5,27.1Z"/>
        <path d="M310.4,271h-16.8c.2.6.4,1,.5,1.3h17.3c.9-2.9,15.4-47.1,17.1-52.4h-1.4c-2.9,9-15.8,48.4-16.7,51.1Z"/>
        <path d="M438.9,239.4s.6-3.3.6-3.3c.2-2.5-.5-4.7-1.9-6.3.8,1.4,1.1,3.1,1,5,0,0-.6,3.3-.6,3.3-1,3-2.7,5.4-5.2,7-2.4,1.6-5.6,2.4-9.5,2.4h-2.8l-.4,1.3h4.2c3.9,0,7.1-.8,9.5-2.4,2.5-1.7,4.2-4,5.2-7Z"/>
        <path d="M498.4,249.3c1,1.6,1.4,3.4,1.2,5.4,0,0-.5,2.3-.5,2.3-.8,2.4-1.8,4.2-2.9,5.5-.9,1.1-2.7,2.4-5.7,2.4h-8.4l-.4,1.3h9.8c3,0,4.8-1.3,5.7-2.4,1.2-1.3,2.1-3.1,2.9-5.5,0,0,.5-2.3.5-2.3.2-2.2-.3-4.2-1.5-5.9-.2-.3-.4-.6-.7-.9Z"/>
        <path d="M506.3,234.9c.2-2.6-.2-4.5-1.1-5.9-.2-.2-.4-.5-.6-.7.7,1.3,1,3,.8,5.3-.2,2.1-1,4.1-2.5,5.9-1.5,1.8-3.4,3-5.6,3.6h-.3c0,0-7.8,0-7.8,0l-.5,1.3h9.5c2.2-.7,4.1-1.9,5.6-3.7,1.5-1.8,2.3-3.8,2.5-5.9Z"/>
        <polygon points="565 228.9 562.9 255.1 548.5 255.1 547.9 256.4 563.8 256.4 566 228.9 565 228.9"/>
      </g>
    </g>
  </g>
</svg>